<?xml version="1.0" encoding="UTF-8"?>
<svg id="Layer_1" xmlns="http://www.w3.org/2000/svg" version="1.1" viewBox="0 0 283.46 283.46">
  <!-- Generator: Adobe Illustrator 30.9.0, SVG Export Plug-In . SVG Version: 2.1.4 Build 93)  -->
  <defs>
    <style>
      .st0 {
        fill: #231f20;
      }
    </style>
  </defs>
  <g>
    <polygon class="st0" points="153.06 108.66 132.19 108.66 130.91 87.78 154.35 87.78 153.06 108.66"/>
    <path d="M255.09,30.3v43.34h-9.24v8.81h-12.12v-24.85h-26.62l20.37,33.57c4.14,7.48-.94,16.72-9.48,17.23l-32.72,2.19-14.46,13.36-3.29-36.39h35.38l-8.9-29.96h-102.21l-10.79,29.96h36.71l-3.29,36.39-14.46-13.36-34.05-2.19c-8.53-.51-13.62-9.75-9.48-17.23l20.37-33.57h-28.12v24.85h-12.12v-8.81h-8.67V30.3h8.67v-13.22h12.12v28.52h185.04v-28.52h12.12v13.22h9.24Z"/>
  </g>
  <path d="M195,212.21l-17.09,54.48-15.9.15,9.18-50.17c0-.15-14.81-38.02-18.77-48.16l-13.58-.11c-3.88,9.81-19,48.12-19,48.27l9.18,50.17-15.9-.15-17.09-54.48,18.56-59.35,5.89-22.03h49.25l6.73,22.03h-.02s18.56,59.35,18.56,59.35Z"/>
</svg>